<svg id="Layer_1" data-name="Layer 1" xmlns="http://www.w3.org/2000/svg" viewBox="0 0 511.92 511.92"><defs><style>.cls-1{fill:#f90;}.cls-2{opacity:0.1;}.cls-3{fill:#d37d0b;}</style></defs><title>721115_MerchImpulse Icons(color)</title><path class="cls-1" d="M330.88,462L210,402,89.12,462V146a58,58,0,0,1,58-58H330.88V462Z"/><path class="cls-2" d="M210,366l-78.85,40V108a57.9,57.9,0,0,1,3-18.54A58,58,0,0,0,89.12,146V462L210,402l120.88,60V416Z"/><path class="cls-3" d="M330.88,88h0a91.92,91.92,0,0,1,91.92,91.92V256a0,0,0,0,1,0,0H330.88a0,0,0,0,1,0,0V88A0,0,0,0,1,330.88,88Z"/></svg>