<svg id="Layer_1" data-name="Layer 1" xmlns="http://www.w3.org/2000/svg" viewBox="0 0 511.92 511.92"><defs><style>.cls-1{fill:#d37d0b;}.cls-2{fill:#f90;}</style></defs><title>721115_MerchImpulse Icons(color)</title><path class="cls-1" d="M308,192.5c-59.5,21.41-145.12,23.54-153.27.89,0,0,64.25-61.51,123.75-82.92s83.57-9.33,91.72,13.32S367.48,171.08,308,192.5Z"/><path class="cls-2" d="M370.17,123.79c3.11,8.64,3.44,17.57-.63,26.5-8.66-21.69-32.95-32.8-91.15-11.86-40.32,14.51-100.51,48-123.72,68.14l0-13.19S219,131.87,278.46,110.46,362,101.13,370.17,123.79Z"/><rect class="cls-1" x="23.55" y="222.34" width="159.84" height="101.7" transform="translate(-169.94 376.11) rotate(-89.88)"/><rect class="cls-2" x="48.93" y="276.82" width="108.98" height="43.6" transform="translate(-195.41 401.45) rotate(-89.88)"/><path class="cls-2" d="M343.46,157.44a221.55,221.55,0,0,1,24.33,1.24,111.26,111.26,0,0,1,15.63-1.16c42.13,0.08,76.22,30.8,76.05,116.4S425.08,390.09,382.95,390l-40-.08c-44.69-.09-146.25-13.42-188.83-36.71l0.32-159.83C197.15,170.27,298.77,157.35,343.46,157.44Z"/></svg>