<svg id="Layer_1" data-name="Layer 1" xmlns="http://www.w3.org/2000/svg" viewBox="0 0 511.92 511.92"><defs><style>.cls-1{fill:none;stroke:#000;stroke-linecap:round;stroke-linejoin:round;stroke-width:14px;}</style></defs><title>721115_MerchImpulse Icons(line)</title><path class="cls-1" d="M154.7,193.38S219,131.87,278.46,110.46s83.57-9.33,91.72,13.32c4.8,13.35,3.31,28.23-2.39,34.89"/><rect class="cls-1" x="23.55" y="222.34" width="159.84" height="101.7" transform="translate(-169.94 376.11) rotate(-89.88)"/><path class="cls-1" d="M343.46,157.44a221.55,221.55,0,0,1,24.33,1.24,111.26,111.26,0,0,1,15.63-1.16c42.13,0.08,76.22,30.8,76.05,116.4S425.08,390.09,382.95,390l-40-.08c-44.69-.09-146.25-13.42-188.83-36.71l0.32-159.83C197.15,170.27,298.77,157.35,343.46,157.44Z"/><rect class="cls-1" x="48.93" y="276.82" width="108.98" height="43.6" transform="translate(-195.41 401.45) rotate(-89.88)"/></svg>