<svg id="Layer_1" data-name="Layer 1" xmlns="http://www.w3.org/2000/svg" viewBox="0 0 511.92 511.92"><defs><style>.cls-1{fill:#f90;}.cls-2{fill:#d37d0b;}.cls-3{opacity:0.1;}</style></defs><title>721115_MerchImpulse Icons(color)</title><circle class="cls-1" cx="85.12" cy="338.03" r="32.33"/><circle class="cls-2" cx="145.04" cy="283.36" r="17.05"/><circle class="cls-2" cx="111.44" cy="429.18" r="16.55"/><path class="cls-1" d="M337.05,235.8c14.67,1.61,27.82,9,38.48,19.23,19.14,18.34,30.81,37.72,26.38,69-10.62,75.1-75.84,163.18-75.84,163.18s-159-48.51-189.18-122.88c0,0,88.39-4.91,140.64-94.13C295.83,239,319.25,233.84,337.05,235.8Z"/><path class="cls-3" d="M175.75,373.37s88.39-4.91,140.64-94.13c14-23.88,31-32.5,46.15-34.36a60.94,60.94,0,0,0-25.48-9.08c-17.81-2-41.23,3.19-59.52,34.42-52.25,89.21-140.64,94.13-140.64,94.13,30.16,74.37,189.18,122.88,189.18,122.88s1-1.34,2.75-3.83C280,464.31,196.73,425.09,175.75,373.37Z"/><path class="cls-2" d="M373.58,253.22l84.65-211.5a12.4,12.4,0,0,0-6.91-16.13h0A12.4,12.4,0,0,0,435.2,32.5L352.28,239.67A72.36,72.36,0,0,1,373.58,253.22Z"/><g class="cls-3"><path d="M185.27,426.53A7,7,0,0,1,182.7,413h0c0.71-.28,71.2-28.54,94.49-73.83a7,7,0,1,1,12.45,6.4c-25.72,50-98.71,79.23-101.81,80.45A7,7,0,0,1,185.27,426.53Z"/></g><g class="cls-3"><path d="M257.63,467.69a7,7,0,0,1-3.52-13.05c0.59-.35,49.83-29.78,80.73-104.51a7,7,0,1,1,12.94,5.35c-32.86,79.47-84.47,110-86.65,111.27A7,7,0,0,1,257.63,467.69Z"/></g><path class="cls-3" d="M287.48,256.22a89.86,89.86,0,0,0-8.31,11.3l115.74,74.64a7,7,0,0,0,3.22,1.08q1.72-6.93,2.92-13.78Z"/></svg>