<svg xmlns="http://www.w3.org/2000/svg" width="992" height="223"><rect id="backgroundrect" width="100%" height="100%" x="0" y="0" fill="none" stroke="none"/><defs><style>.cls-1{fill:#383237;}.cls-2{fill:#231f20;}.cls-3{fill:#fff;}.cls-4{fill:#f90;}</style></defs><title>Study 2</title><g class="currentLayer" style=""><title>Layer 1</title><g id="Study_2" data-name="Study 2" class=""><path class="cls-1" d="M94.25000564575194,49.215257873535165 l-3.09,-9.66 c5.76,-3.19 13.52,-11.07 10.69,-23.62 C100.33000564575195,9.155257873535163 97.33000564575195,4.465257873535151 93.03000564575194,1.9952578735351523 s-10.13,-2.67 -17,-0.47000000000000003 a19.33,19.33 0 0 0 -13,12.55 a21.16,21.16 0 0 0 2.64,18.5 a2.26,2.26 0 0 0 3.64,-2.67 c-2.77,-3.77 -3.5700000000000003,-9.57 -2,-14.43 a14.7,14.7 0 0 1 10,-9.66 c5.65,-1.8 10.17,-1.77 13.43,0.09000000000000002 s5.42,5.53 6.66,11 c3.1,13.73 -9.37,19.15 -9.89,19.37 a2.26,2.26 0 0 0 -1.29,2.77 l3.6,11.23 l-25,18.67 l4.1,2.5700000000000003 a42.77,42.77 0 0 0 29.76,4.46 c13.49,-2.8 21.21,-9.870000000000001 25.48,-15.86 a47.77,47.77 0 0 0 2.52,-4.08 zM98.48000564575196,74.72525787353516 a41.38,41.38 0 0 1 -28.81,-4.32 l23.34,-17.4 l30.14,6.36 C119.02000564575195,65.19525787353516 111.54000564575196,72.04525787353515 98.48000564575196,74.72525787353516 z" id="svg_1"/><path class="cls-2" d="M68.33000564575195,215.72525787353516 c-2.66,-11.6 -7.8,-33.91 -12.39,-53 c-8.64,-35.87 -9.21,-36 -10.91,-36.53 a2.3,2.3 0 0 0 -2.24,0.56 c-0.21000000000000002,0.18000000000000002 -1.87,1.4100000000000001 -13.47,7.51 a5.890000000000001,5.890000000000001 0 0 1 -7.61,-1.9 l-21,-30.82 a3.83,3.83 0 0 1 -0.7100000000000001,-2.18 a3.64,3.64 0 0 1 1.6500000000000001,-3 l48.84,-31.87 a7.890000000000001,7.890000000000001 0 0 1 9,0.27 a47.56,47.56 0 0 0 37.93,8.14 c19.63,-4.07 28.29,-16.46 31.7,-23.49 a5.32,5.32 0 0 1 5.76,-2.89 l55.31,10.58 a6.18,6.18 0 0 1 5,7 c-0.6800000000000002,4.68 -2.51,15.93 -3.81,24.53 a6.9,6.9 0 0 1 -7.68,5.8100000000000005 l-17.19,-2.15 a3.19,3.19 0 0 0 -3.05,4.85 h0 l6,28.2 l-99.52,96.8 S68.79000564575195,217.64525787353517 68.33000564575195,215.72525787353516 z" id="svg_2"/><path class="cls-3" d="M152.45000564575196,162.02525787353517 L128.63000564575196,177.52525787353517 V110.80525787353517 c0,-1.79 1.84,-3.23 4.1,-3.23 H148.33000564575195 c2.26,0 4.09,1.44 4.09,3.23 z" id="svg_3"/><path class="cls-3" d="M100.33000564575195,203.37525787353513 v-68.4 c0,-1.78 1.83,-3.23 4.09,-3.23 h15.63 c2.26,0 4.09,1.45 4.09,3.23 v50.52 z" id="svg_4"/><path class="cls-3" d="M71.52000564575195,222.26525787353518 V157.59525787353516 c0,-1.79 1.83,-3.23 4.09,-3.23 h15.63 c2.26,0 4.09,1.44 4.09,3.23 v49.49 z" id="svg_5"/><path class="cls-4" d="M259.54000564575193,189.60525787353515 a2,2 0 0 1 -3.3,1.45 l-21.86,-20.11 a2.31,2.31 0 0 0 -2,-0.5700000000000001 a2.37,2.37 0 0 0 -1.6500000000000001,1.25 c-0.28,0.56 -28.75,57.37 -159.93,50.64 a5.78,5.78 0 0 1 -0.91,-0.19000000000000003 l15.94,-15.9 h0 l30,-30 h0 L175.33000564575195,116.72525787353516 a3.08,3.08 0 0 0 0.06000000000000001,-4.28 L155.92000564575196,91.72525787353516 a2,2 0 0 1 1.44,-3.3200000000000003 h97.64 a4.54,4.54 0 0 1 4.54,4.54 z" id="svg_6"/><path class="cls-3" d="M282.48000564575193,100.31525787353516 H303.33000564575195 l11.09,32.3 c1.36,4.37 2.49,9.23 3.85,13.85 h0.45 c1.36,-4.62 2.49,-9.48 3.85,-13.85 l10.63,-32.3 h20.82 v78.94 H336.33000564575195 V155.93525787353516 c0,-8 1.59,-20.28 2.49,-28.18 h-0.45 L332.27000564575195,146.72525787353516 l-9.06,26.11 H312.800005645752 L303.75000564575197,146.72525787353516 L297.870005645752,127.72525787353516 h-0.46 c0.91,7.9 2.49,20.16 2.49,28.18 v23.32 H282.48000564575193 z" id="svg_7"/><path class="cls-3" d="M365.76000564575196,148.88525787353515 c0,-19.67 13.35,-31.81 27.16,-31.81 c16.75,0 24.67,13.11 24.67,29.39 a46.5,46.5 0 0 1 -0.79,8.74 H384.550005645752 c1.81,7.29 6.79,9.71 13.12,9.71 c3.85,0 7.47,-1.21 11.54,-3.64 l6.34,12.39 a36.37,36.37 0 0 1 -20.59,7 C378.44000564575197,180.72525787353516 365.76000564575196,169.04525787353515 365.76000564575196,148.88525787353515 zm35.31,-7.28 c0,-4.62 -1.81,-8.75 -7.7,-8.75 c-4.3,0 -7.92,2.68 -9.05,8.75 z" id="svg_8"/><path class="cls-3" d="M428.22000564575194,118.52525787353517 h15.85 l1.35,10.45 h0.46 c4.18,-8.26 10.52,-11.9 16.07,-11.9 a15.78,15.78 0 0 1 7,1.21 l-3.17,18 a25.17,25.17 0 0 0 -6.33,-1 c-4.08,0 -9.06,2.67 -11.77,10.2 v33.77 H428.22000564575194 z" id="svg_9"/><path class="cls-3" d="M471.45000564575196,148.88525787353515 c0,-20.16 14.26,-31.81 30.33,-31.81 A23.86,23.86 0 0 1 518.330005645752,123.38525787353515 L509.2500056457519,136.72525787353516 c-2.49,-2.19 -4.3,-2.91 -6.34,-2.91 c-7.24,0 -11.54,5.82 -11.54,15 s4.75,15.06 10.86,15.06 c3.17,0 6.34,-1.7000000000000002 9.05,-3.88 l7.47,13.6 a27.26,27.26 0 0 1 -18.78,7 C483.900005645752,180.72525787353516 471.45000564575196,169.04525787353515 471.45000564575196,148.88525787353515 z" id="svg_10"/><path class="cls-3" d="M527.800005645752,94.72525787353516 h19.47 v19.67 L546.330005645752,124.84525787353516 c3.85,-3.6500000000000004 9.28,-7.77 17,-7.77 c12.44,0 17.65,9.71 17.65,24.77 v37.41 H561.530005645752 V144.51525787353515 c0,-7.77 -1.82,-9.71 -5.66,-9.71 c-3.62,0 -5.66,1.7000000000000002 -8.6,4.61 v39.84 H527.800005645752 z" id="svg_11"/><path class="cls-3" d="M595.2500056457519,100.31525787353516 h19.46 v78.94 H595.2500056457519 z" id="svg_12"/><path class="cls-3" d="M629.420005645752,118.52525787353517 h15.84 l1.36,7.41 h0.45 c4.53,-4.74 9.28,-8.86 17,-8.86 s12.56,3.4 15.61,9.71 c4.640000000000001,-5.1 9.73,-9.71 17.43,-9.71 c12.45,0 17.88,9.71 17.88,24.77 v37.41 H695.5000056457519 V144.51525787353515 c0,-7.77 -1.81,-9.71 -5.65,-9.71 c-2.27,0 -5,1.45 -7.92,4.61 v39.84 H662.460005645752 V144.51525787353515 c0,-7.77 -1.81,-9.71 -5.66,-9.71 c-2.26,0 -5,1.45 -7.92,4.61 v39.84 H629.420005645752 z" id="svg_13"/><path class="cls-3" d="M727.6400056457519,118.52525787353517 h15.84 l1.36,5.59 H745.330005645752 c4.19,-4.13 9.74,-7 15.39,-7 c13.36,0 22,12.14 22,30.84 c0,20.89 -11.55,32.79 -23.54,32.79 c-4.75,0 -9,-2.18 -12.67,-6.07 l0.6700000000000002,9.23 V200.62525787353513 H727.6400056457519 zm35.08,29.64 c0,-10 -2.72,-14.09 -7.92,-14.09 c-2.94,0 -5.21,1.21 -7.7,4.37 v22.35 A10,10 0 0 0 754.330005645752,163.72525787353516 C758.8700056457519,163.72525787353516 762.7200056457519,159.81525787353516 762.7200056457519,148.16525787353515 z" id="svg_14"/><path class="cls-3" d="M792.820005645752,155.93525787353516 V118.52525787353517 H812.330005645752 v34.74 c0,7.77 1.81,9.71 5.66,9.71 c3.62,0 5.66,-1.46 8.15,-5.34 V118.52525787353517 h19.46 v60.73 H829.710005645752 l-1.36,-8 h-0.45 c-4.53,5.83 -9.73,9.47 -17.43,9.47 C798.030005645752,180.72525787353516 792.820005645752,170.99525787353514 792.820005645752,155.93525787353516 z" id="svg_15"/><path class="cls-3" d="M858.680005645752,157.87525787353516 V94.72525787353516 h19.46 v63.88 c0,4.13 1.81,5.34 3.17,5.34 a6.63,6.63 0 0 0 2,-0.24000000000000002 l2.26,15.3 a22.63,22.63 0 0 1 -9.5,1.7000000000000002 C862.9800056457519,180.72525787353516 858.680005645752,171.47525787353516 858.680005645752,157.87525787353516 z" id="svg_16"/><path class="cls-3" d="M887.8700056457519,172.20525787353517 l8.6,-12.870000000000001 c5.21,4.13 9.85,6.07 13.81,6.07 s5.66,-1.21 5.66,-3.64 c0,-3.16 -5.21,-4.62 -10.870000000000001,-7 c-6.5600000000000005,-2.79 -14.26,-8 -14.26,-18 c0,-11.9 9.06,-19.67 22.41,-19.67 c9.28,0 15.84,4 20.82,8 l-8.6,12.39 c-4.07,-3.16 -8,-5.1 -11.54,-5.1 c-3.2800000000000002,0 -5,1 -5,3.4 c0,3.16 5,4.37 10.64,6.5600000000000005 c6.79,2.67 14.48,7.28 14.48,18.21 c0,11.42 -8.37,20.16 -24.22,20.16 C902.580005645752,180.72525787353516 893.7600056457519,177.30525787353514 887.8700056457519,172.20525787353517 z" id="svg_17"/><path class="cls-3" d="M940.6000056457519,148.88525787353515 c0,-19.67 13.36,-31.81 27.16,-31.81 c16.75,0 24.67,13.11 24.67,29.39 a46.5,46.5 0 0 1 -0.79,8.74 h-32.25 c1.81,7.29 6.79,9.71 13.13,9.71 c3.84,0 7.46,-1.21 11.54,-3.64 l6.33,12.39 a36.34,36.34 0 0 1 -20.59,7 C953.330005645752,180.72525787353516 940.6000056457519,169.04525787353515 940.6000056457519,148.88525787353515 zm35.31,-7.28 c0,-4.62 -1.81,-8.75 -7.7,-8.75 c-4.3,0 -7.92,2.68 -9,8.75 z" id="svg_18"/></g></g></svg>