<svg xmlns="http://www.w3.org/2000/svg" xmlns:xlink="http://www.w3.org/1999/xlink" version="1.1" style="" xml:space="preserve" width="512" height="512"><rect id="backgroundrect" width="100%" height="100%" x="0" y="0" fill="none" stroke="none"/>
















<g class="currentLayer" style=""><title>Layer 1</title><g id="svg_1" class="selected" fill="#ffffff" fill-opacity="1">
	<g id="svg_2" fill="#ffffff" fill-opacity="1">
		<path d="M256,0C114.842,0,0,114.842,0,256s114.842,256,256,256s256-114.842,256-256S397.158,0,256,0z M202.589,219.42    c-13.916,13.914-21.578,32.416-21.578,52.095c0,19.679,7.663,38.178,21.578,52.092c28.726,28.726,75.464,28.723,104.187,0.002    c9.089-9.089,23.825-9.087,32.912,0c9.089,9.092,9.089,23.827-0.002,32.915c-23.436,23.434-54.221,35.151-85.006,35.151    s-61.57-11.717-85.006-35.151c-22.706-22.706-35.212-52.896-35.212-85.008s12.505-62.303,35.212-85.009    c22.427-22.427,52.243-34.929,83.954-35.204c3.77-0.033,7.514,0.121,11.225,0.431l6.02-17.734    c3.025-8.913,11.124-15.126,20.517-15.742c9.408-0.622,18.232,4.487,22.395,12.93l30.318,61.479    c5.685,11.529,0.948,25.482-10.578,31.167l-61.483,30.321c-3.269,1.612-6.791,2.4-10.29,2.4c-5.534,0-11.014-1.972-15.349-5.776    c-7.076-6.206-9.719-16.066-6.692-24.979l9.367-27.591C232.076,199.492,215.451,206.558,202.589,219.42z" id="svg_3" fill="#ffffff" fill-opacity="1"/>
	</g>
</g><g id="svg_4">
</g><g id="svg_5">
</g><g id="svg_6">
</g><g id="svg_7">
</g><g id="svg_8">
</g><g id="svg_9">
</g><g id="svg_10">
</g><g id="svg_11">
</g><g id="svg_12">
</g><g id="svg_13">
</g><g id="svg_14">
</g><g id="svg_15">
</g><g id="svg_16">
</g><g id="svg_17">
</g><g id="svg_18">
</g></g></svg>