<svg id="Layer_1" data-name="Layer 1" xmlns="http://www.w3.org/2000/svg" viewBox="0 0 511.92 511.92"><defs><style>.cls-1{fill:#f90;}.cls-2{opacity:0.1;}</style></defs><title>tm_051820</title><path class="cls-1" d="M51.9,155.36H207.53v39.27H154.22V356.56h-49V194.63H51.9Z"/><path class="cls-1" d="M232.17,155.36h57.9l56.46,139.29,55.88-139.29H460v201.2H411V235.9L366,356.56H326.46L281.18,235.61v121h-49Z"/><path class="cls-2" d="M51.9,194.63H67.55V155.36H51.9Zm350.51-39.27L346.09,294.65l7.87,19.4,64.1-158.69Zm-297.2,201.2h15.65V194.63H105.21Zm305.8-120v120h15.65V194.63Zm-178.84,120h15.65V155.36H232.17Zm49.22-120.14,45.07,120.14h15.65L281.39,194.63Z"/></svg>