<svg xmlns="http://www.w3.org/2000/svg" xmlns:xlink="http://www.w3.org/1999/xlink" version="1.1" width="97.891" height="97.89" style="" xml:space="preserve"><rect id="backgroundrect" width="100%" height="100%" x="0" y="0" fill="none" stroke="none"/>
















<g class="currentLayer" style=""><title>Layer 1</title><g id="svg_1" class="selected" fill-opacity="1" fill="#f57200">
	<path d="M71.957,2.539c-14.299,0-25.934,11.635-25.934,25.934v8.764H2c-0.529,0-1.039,0.211-1.414,0.586   C0.211,38.2,0,38.708,0,39.239l0.041,54.115c0,1.104,0.896,1.998,2,1.998l0,0l57.916-0.041c1.104,0,1.998-0.896,1.998-2V39.197   c0-0.533-0.213-1.045-0.592-1.42c-0.373-0.373-0.881-0.58-1.408-0.58c-0.004,0-0.01,0-0.016,0L56.98,37.22v-8.748   c0-8.258,6.719-14.977,14.977-14.977s14.975,6.719,14.975,14.977v6.764c0,1.105,0.896,2,2,2h6.959c1.104,0,2-0.895,2-2v-6.764   C97.89,14.174,86.256,2.539,71.957,2.539z" id="svg_2" fill="#f57200"/>
</g><g id="svg_3">
</g><g id="svg_4">
</g><g id="svg_5">
</g><g id="svg_6">
</g><g id="svg_7">
</g><g id="svg_8">
</g><g id="svg_9">
</g><g id="svg_10">
</g><g id="svg_11">
</g><g id="svg_12">
</g><g id="svg_13">
</g><g id="svg_14">
</g><g id="svg_15">
</g><g id="svg_16">
</g><g id="svg_17">
</g></g></svg>