<svg xmlns="http://www.w3.org/2000/svg" viewBox="0 0 1080 400"><defs><style>.cls-1{fill:#383237;}.cls-2{fill:#231f20;}.cls-3{fill:#fff;}.cls-4{fill:#f90;}</style></defs><title>Study 2</title><g id="Study_2" data-name="Study 2"><path class="cls-1" d="M134.92,139.49l-3.09-9.66c5.76-3.19,13.52-11.07,10.69-23.62C141,99.43,138,94.74,133.7,92.27s-10.13-2.67-17-.47a19.33,19.33,0,0,0-13,12.55,21.16,21.16,0,0,0,2.64,18.5,2.26,2.26,0,0,0,3.64-2.67c-2.77-3.77-3.57-9.57-2-14.43a14.7,14.7,0,0,1,10-9.66c5.65-1.8,10.17-1.77,13.43.09s5.42,5.53,6.66,11c3.1,13.73-9.37,19.15-9.89,19.37a2.26,2.26,0,0,0-1.29,2.77l3.6,11.23-25,18.67,4.1,2.57a42.77,42.77,0,0,0,29.76,4.46c13.49-2.8,21.21-9.87,25.48-15.86a47.77,47.77,0,0,0,2.52-4.08ZM139.15,165a41.38,41.38,0,0,1-28.81-4.32l23.34-17.4,30.14,6.36C159.69,155.47,152.21,162.32,139.15,165Z"/><path class="cls-2" d="M109,306c-2.66-11.6-7.8-33.91-12.39-53-8.64-35.87-9.21-36-10.91-36.53a2.3,2.3,0,0,0-2.24.56c-.21.18-1.87,1.41-13.47,7.51a5.89,5.89,0,0,1-7.61-1.9l-21-30.82a3.83,3.83,0,0,1-.71-2.18,3.64,3.64,0,0,1,1.65-3l48.84-31.87a7.89,7.89,0,0,1,9,.27,47.56,47.56,0,0,0,37.93,8.14c19.63-4.07,28.29-16.46,31.7-23.49a5.32,5.32,0,0,1,5.76-2.89l55.31,10.58a6.18,6.18,0,0,1,5,7c-.68,4.68-2.51,15.93-3.81,24.53a6.9,6.9,0,0,1-7.68,5.81l-17.19-2.15a3.19,3.19,0,0,0-3.05,4.85h0l6,28.2-99.52,96.8S109.46,307.92,109,306Z"/><path class="cls-3" d="M193.12,252.3,169.3,267.8V201.08c0-1.79,1.84-3.23,4.1-3.23H189c2.26,0,4.09,1.44,4.09,3.23Z"/><path class="cls-3" d="M141,293.65v-68.4c0-1.78,1.83-3.23,4.09-3.23h15.63c2.26,0,4.09,1.45,4.09,3.23v50.52Z"/><path class="cls-3" d="M112.19,312.54V247.87c0-1.79,1.83-3.23,4.09-3.23h15.63c2.26,0,4.09,1.44,4.09,3.23v49.49Z"/><path class="cls-4" d="M300.21,279.88a2,2,0,0,1-3.3,1.45l-21.86-20.11a2.31,2.31,0,0,0-2-.57,2.37,2.37,0,0,0-1.65,1.25c-.28.56-28.75,57.37-159.93,50.64a5.78,5.78,0,0,1-.91-.19l15.94-15.9h0l30-30h0L216,207a3.08,3.08,0,0,0,.06-4.28L196.59,182a2,2,0,0,1,1.44-3.32h97.64a4.54,4.54,0,0,1,4.54,4.54Z"/><path class="cls-1" d="M323.15,190.59H344l11.09,32.3c1.36,4.37,2.49,9.23,3.85,13.85h.45c1.36-4.62,2.49-9.48,3.85-13.85l10.63-32.3h20.82v78.94H377V246.21c0-8,1.59-20.28,2.49-28.18h-.45L372.94,237l-9.06,26.11H353.47L344.42,237,338.54,218h-.46c.91,7.9,2.49,20.16,2.49,28.18v23.32H323.15Z"/><path class="cls-1" d="M406.43,239.16c0-19.67,13.35-31.81,27.16-31.81,16.75,0,24.67,13.11,24.67,29.39a46.5,46.5,0,0,1-.79,8.74H425.22c1.81,7.29,6.79,9.71,13.12,9.71,3.85,0,7.47-1.21,11.54-3.64l6.34,12.39a36.37,36.37,0,0,1-20.59,7C419.11,271,406.43,259.32,406.43,239.16Zm35.31-7.28c0-4.62-1.81-8.75-7.7-8.75-4.3,0-7.92,2.68-9.05,8.75Z"/><path class="cls-1" d="M468.89,208.8h15.85l1.35,10.45h.46c4.18-8.26,10.52-11.9,16.07-11.9a15.78,15.78,0,0,1,7,1.21l-3.17,18a25.17,25.17,0,0,0-6.33-1c-4.08,0-9.06,2.67-11.77,10.2v33.77H468.89Z"/><path class="cls-1" d="M512.12,239.16c0-20.16,14.26-31.81,30.33-31.81A23.86,23.86,0,0,1,559,213.66L549.92,227c-2.49-2.19-4.3-2.91-6.34-2.91-7.24,0-11.54,5.82-11.54,15s4.75,15.06,10.86,15.06c3.17,0,6.34-1.7,9.05-3.88l7.47,13.6a27.26,27.26,0,0,1-18.78,7C524.57,271,512.12,259.32,512.12,239.16Z"/><path class="cls-1" d="M568.47,185h19.47v19.67L587,215.12c3.85-3.65,9.28-7.77,17-7.77,12.44,0,17.65,9.71,17.65,24.77v37.41H602.2V234.79c0-7.77-1.82-9.71-5.66-9.71-3.62,0-5.66,1.7-8.6,4.61v39.84H568.47Z"/><path class="cls-1" d="M635.92,190.59h19.46v78.94H635.92Z"/><path class="cls-1" d="M670.09,208.8h15.84l1.36,7.41h.45c4.53-4.74,9.28-8.86,17-8.86s12.56,3.4,15.61,9.71c4.64-5.1,9.73-9.71,17.43-9.71,12.45,0,17.88,9.71,17.88,24.77v37.41H736.17V234.79c0-7.77-1.81-9.71-5.65-9.71-2.27,0-5,1.45-7.92,4.61v39.84H703.13V234.79c0-7.77-1.81-9.71-5.66-9.71-2.26,0-5,1.45-7.92,4.61v39.84H670.09Z"/><path class="cls-1" d="M768.31,208.8h15.84l1.36,5.59H786c4.19-4.13,9.74-7,15.39-7,13.36,0,22,12.14,22,30.84,0,20.89-11.55,32.79-23.54,32.79-4.75,0-9-2.18-12.67-6.07l.67,9.23V290.9H768.31Zm35.08,29.64c0-10-2.72-14.09-7.92-14.09-2.94,0-5.21,1.21-7.7,4.37v22.35A10,10,0,0,0,795,254C799.54,254,803.39,250.09,803.39,238.44Z"/><path class="cls-1" d="M833.49,246.21V208.8H853v34.74c0,7.77,1.81,9.71,5.66,9.71,3.62,0,5.66-1.46,8.15-5.34V208.8h19.46v60.73H870.38l-1.36-8h-.45c-4.53,5.83-9.73,9.47-17.43,9.47C838.7,271,833.49,261.27,833.49,246.21Z"/><path class="cls-1" d="M899.35,248.15V185h19.46v63.88c0,4.13,1.81,5.34,3.17,5.34a6.63,6.63,0,0,0,2-.24l2.26,15.3a22.63,22.63,0,0,1-9.5,1.7C903.65,271,899.35,261.75,899.35,248.15Z"/><path class="cls-1" d="M928.54,262.48l8.6-12.87c5.21,4.13,9.85,6.07,13.81,6.07s5.66-1.21,5.66-3.64c0-3.16-5.21-4.62-10.87-7-6.56-2.79-14.26-8-14.26-18,0-11.9,9.06-19.67,22.41-19.67,9.28,0,15.84,4,20.82,8l-8.6,12.39c-4.07-3.16-8-5.1-11.54-5.1-3.28,0-5,1-5,3.4,0,3.16,5,4.37,10.64,6.56,6.79,2.67,14.48,7.28,14.48,18.21,0,11.42-8.37,20.16-24.22,20.16C943.25,271,934.43,267.58,928.54,262.48Z"/><path class="cls-1" d="M981.27,239.16c0-19.67,13.36-31.81,27.16-31.81,16.75,0,24.67,13.11,24.67,29.39a46.5,46.5,0,0,1-.79,8.74h-32.25c1.81,7.29,6.79,9.71,13.13,9.71,3.84,0,7.46-1.21,11.54-3.64l6.33,12.39a36.34,36.34,0,0,1-20.59,7C994,271,981.27,259.32,981.27,239.16Zm35.31-7.28c0-4.62-1.81-8.75-7.7-8.75-4.3,0-7.92,2.68-9,8.75Z"/></g></svg>