<svg xmlns="http://www.w3.org/2000/svg" version="1.0" width="860.000000" height="1060.000000" preserveAspectRatio="xMidYMid meet" style=""><rect id="backgroundrect" width="100%" height="100%" x="0" y="0" fill="none" stroke="none"/>
	<metadata>
		Created by potrace 1.16, written by Peter Selinger 2001-2019
	</metadata>
	
<g class="currentLayer" style=""><title>Layer 1</title><g transform="translate(0,1060) scale(0.10000000149011612,-0.10000000149011612) " fill="#ffffff" stroke="none" id="svg_1" class="selected" fill-opacity="1">
		<path d="M4205 10191 c-88 -22 -201 -113 -250 -202 -24 -45 -29 -67 -36 -183 -5 -72 -12 -1108 -15 -2302 l-7 -2170 43 -82 c50 -98 115 -161 210 -206 57 -27 76 -31 151 -31 78 0 91 3 160 37 89 44 148 102 202 200 l37 66 -1 1739 c0 956 -4 1991 -8 2300 l-8 563 -32 64 c-33 68 -97 133 -163 167 -82 42 -204 59 -283 40z" id="svg_2" fill="#ffffff" fill-opacity="1"/>
		<path d="M2410 8504 c-193 -52 -626 -368 -950 -693 -488 -490 -844 -1117 -1025 -1805 -78 -300 -114 -563 -122 -901 -13 -585 83 -1102 304 -1635 469 -1129 1435 -1977 2638 -2315 329 -92 659 -135 1045 -135 654 0 1220 134 1795 425 386 195 698 419 1008 724 455 447 789 982 985 1582 89 269 144 527 184 849 17 141 17 680 0 820 -37 303 -80 509 -158 763 -186 610 -531 1186 -973 1628 -346 345 -759 640 -973 695 -195 50 -400 -82 -448 -288 -15 -69 -12 -161 10 -231 28 -89 80 -144 248 -261 451 -315 742 -594 963 -922 513 -766 675 -1700 449 -2591 -51 -200 -85 -299 -168 -492 -159 -367 -356 -654 -657 -957 -178 -179 -287 -270 -470 -396 -366 -250 -823 -437 -1255 -513 -156 -27 -513 -40 -757 -27 -303 16 -436 40 -723 129 -1071 331 -1882 1193 -2160 2293 -64 251 -81 416 -81 770 1 350 18 507 86 767 151 577 425 1063 826 1463 142 143 290 264 500 412 285 199 327 244 348 363 30 169 -9 304 -110 389 -68 57 -200 107 -277 105 -15 0 -52 -7 -82 -15z" id="svg_3" fill="#ffffff" fill-opacity="1"/>
	</g></g></svg>