<svg xmlns="http://www.w3.org/2000/svg" width="997.5167789874185" height="228.69798718716174" style=""><rect id="backgroundrect" width="100%" height="100%" x="0" y="0" fill="none" stroke="none"/>
	<defs>
		<style>
			.cls-1{fill:#383237;}.cls-2{fill:#282c34;}.cls-3{fill:#fff;}.cls-4{fill:#f90;}
		</style>
	</defs>
	<title>
		Study 2
	</title>
	
<g class="currentLayer" style=""><title>Layer 1</title><g id="Study_2" data-name="Study 2" class="">
		<path class="cls-1" d="M95.32268325805663,51.570535888671884 l-3.09,-9.66 c5.76,-3.19 13.52,-11.07 10.69,-23.62 C101.40268325805664,11.510535888671882 98.40268325805664,6.82053588867187 94.10268325805663,4.350535888671871 s-10.13,-2.67 -17,-0.47000000000000003 a19.33,19.33 0 0 0 -13,12.55 a21.16,21.16 0 0 0 2.64,18.5 a2.26,2.26 0 0 0 3.64,-2.67 c-2.77,-3.77 -3.5700000000000003,-9.57 -2,-14.43 a14.7,14.7 0 0 1 10,-9.66 c5.65,-1.8 10.17,-1.77 13.43,0.09000000000000002 s5.42,5.53 6.66,11 c3.1,13.73 -9.37,19.15 -9.89,19.37 a2.26,2.26 0 0 0 -1.29,2.77 l3.6,11.23 l-25,18.67 l4.1,2.5700000000000003 a42.77,42.77 0 0 0 29.76,4.46 c13.49,-2.8 21.21,-9.870000000000001 25.48,-15.86 a47.77,47.77 0 0 0 2.52,-4.08 zM99.55268325805665,77.08053588867188 a41.38,41.38 0 0 1 -28.81,-4.32 l23.34,-17.4 l30.14,6.36 C120.09268325805664,67.55053588867187 112.61268325805665,74.40053588867187 99.55268325805665,77.08053588867188 z" id="svg_1"/>
		<path class="cls-2" d="M69.40268325805664,218.08053588867188 c-2.66,-11.6 -7.8,-33.91 -12.39,-53 c-8.64,-35.87 -9.21,-36 -10.91,-36.53 a2.3,2.3 0 0 0 -2.24,0.56 c-0.21000000000000002,0.18000000000000002 -1.87,1.4100000000000001 -13.47,7.51 a5.890000000000001,5.890000000000001 0 0 1 -7.61,-1.9 l-21,-30.82 a3.83,3.83 0 0 1 -0.7100000000000001,-2.18 a3.64,3.64 0 0 1 1.6500000000000001,-3 l48.84,-31.87 a7.890000000000001,7.890000000000001 0 0 1 9,0.27 a47.56,47.56 0 0 0 37.93,8.14 c19.63,-4.07 28.29,-16.46 31.7,-23.49 a5.32,5.32 0 0 1 5.76,-2.89 l55.31,10.58 a6.18,6.18 0 0 1 5,7 c-0.6800000000000002,4.68 -2.51,15.93 -3.81,24.53 a6.9,6.9 0 0 1 -7.68,5.8100000000000005 l-17.19,-2.15 a3.19,3.19 0 0 0 -3.05,4.85 h0 l6,28.2 l-99.52,96.8 S69.86268325805663,220.0005358886719 69.40268325805664,218.08053588867188 z" id="svg_2"/>
		<path class="cls-3" d="M153.52268325805665,164.3805358886719 L129.70268325805665,179.8805358886719 V113.16053588867189 c0,-1.79 1.84,-3.23 4.1,-3.23 H149.40268325805664 c2.26,0 4.09,1.44 4.09,3.23 z" id="svg_3"/>
		<path class="cls-3" d="M101.40268325805664,205.73053588867185 v-68.4 c0,-1.78 1.83,-3.23 4.09,-3.23 h15.63 c2.26,0 4.09,1.45 4.09,3.23 v50.52 z" id="svg_4"/>
		<path class="cls-3" d="M72.59268325805664,224.6205358886719 V159.95053588867188 c0,-1.79 1.83,-3.23 4.09,-3.23 h15.63 c2.26,0 4.09,1.44 4.09,3.23 v49.49 z" id="svg_5"/>
		<path class="cls-4" d="M260.6126832580566,191.96053588867187 a2,2 0 0 1 -3.3,1.45 l-21.86,-20.11 a2.31,2.31 0 0 0 -2,-0.5700000000000001 a2.37,2.37 0 0 0 -1.6500000000000001,1.25 c-0.28,0.56 -28.75,57.37 -159.93,50.64 a5.78,5.78 0 0 1 -0.91,-0.19000000000000003 l15.94,-15.9 h0 l30,-30 h0 L176.40268325805664,119.08053588867188 a3.08,3.08 0 0 0 0.06000000000000001,-4.28 L156.99268325805664,94.08053588867188 a2,2 0 0 1 1.44,-3.3200000000000003 h97.64 a4.54,4.54 0 0 1 4.54,4.54 z" id="svg_6"/>
		<path class="cls-3" d="M283.5526832580566,102.67053588867188 H304.40268325805664 l11.09,32.3 c1.36,4.37 2.49,9.23 3.85,13.85 h0.45 c1.36,-4.62 2.49,-9.48 3.85,-13.85 l10.63,-32.3 h20.82 v78.94 H337.40268325805664 V158.29053588867188 c0,-8 1.59,-20.28 2.49,-28.18 h-0.45 L333.34268325805664,149.08053588867188 l-9.06,26.11 H313.87268325805667 L304.82268325805666,149.08053588867188 L298.94268325805666,130.08053588867188 h-0.46 c0.91,7.9 2.49,20.16 2.49,28.18 v23.32 H283.5526832580566 z" id="svg_7"/>
		<path class="cls-3" d="M366.83268325805665,151.24053588867187 c0,-19.67 13.35,-31.81 27.16,-31.81 c16.75,0 24.67,13.11 24.67,29.39 a46.5,46.5 0 0 1 -0.79,8.74 H385.62268325805667 c1.81,7.29 6.79,9.71 13.12,9.71 c3.85,0 7.47,-1.21 11.54,-3.64 l6.34,12.39 a36.37,36.37 0 0 1 -20.59,7 C379.51268325805665,183.08053588867188 366.83268325805665,171.40053588867187 366.83268325805665,151.24053588867187 zm35.31,-7.28 c0,-4.62 -1.81,-8.75 -7.7,-8.75 c-4.3,0 -7.92,2.68 -9.05,8.75 z" id="svg_8"/>
		<path class="cls-3" d="M429.2926832580566,120.88053588867189 h15.85 l1.35,10.45 h0.46 c4.18,-8.26 10.52,-11.9 16.07,-11.9 a15.78,15.78 0 0 1 7,1.21 l-3.17,18 a25.17,25.17 0 0 0 -6.33,-1 c-4.08,0 -9.06,2.67 -11.77,10.2 v33.77 H429.2926832580566 z" id="svg_9"/>
		<path class="cls-3" d="M472.52268325805665,151.24053588867187 c0,-20.16 14.26,-31.81 30.33,-31.81 A23.86,23.86 0 0 1 519.4026832580566,125.74053588867187 L510.3226832580566,139.08053588867188 c-2.49,-2.19 -4.3,-2.91 -6.34,-2.91 c-7.24,0 -11.54,5.82 -11.54,15 s4.75,15.06 10.86,15.06 c3.17,0 6.34,-1.7000000000000002 9.05,-3.88 l7.47,13.6 a27.26,27.26 0 0 1 -18.78,7 C484.9726832580567,183.08053588867188 472.52268325805665,171.40053588867187 472.52268325805665,151.24053588867187 z" id="svg_10"/>
		<path class="cls-3" d="M528.8726832580567,97.08053588867188 h19.47 v19.67 L547.4026832580566,127.20053588867188 c3.85,-3.6500000000000004 9.28,-7.77 17,-7.77 c12.44,0 17.65,9.71 17.65,24.77 v37.41 H562.6026832580567 V146.87053588867187 c0,-7.77 -1.82,-9.71 -5.66,-9.71 c-3.62,0 -5.66,1.7000000000000002 -8.6,4.61 v39.84 H528.8726832580567 z" id="svg_11"/>
		<path class="cls-3" d="M596.3226832580566,102.67053588867188 h19.46 v78.94 H596.3226832580566 z" id="svg_12"/>
		<path class="cls-3" d="M630.4926832580567,120.88053588867189 h15.84 l1.36,7.41 h0.45 c4.53,-4.74 9.28,-8.86 17,-8.86 s12.56,3.4 15.61,9.71 c4.640000000000001,-5.1 9.73,-9.71 17.43,-9.71 c12.45,0 17.88,9.71 17.88,24.77 v37.41 H696.5726832580566 V146.87053588867187 c0,-7.77 -1.81,-9.71 -5.65,-9.71 c-2.27,0 -5,1.45 -7.92,4.61 v39.84 H663.5326832580566 V146.87053588867187 c0,-7.77 -1.81,-9.71 -5.66,-9.71 c-2.26,0 -5,1.45 -7.92,4.61 v39.84 H630.4926832580567 z" id="svg_13"/>
		<path class="cls-3" d="M728.7126832580566,120.88053588867189 h15.84 l1.36,5.59 H746.4026832580566 c4.19,-4.13 9.74,-7 15.39,-7 c13.36,0 22,12.14 22,30.84 c0,20.89 -11.55,32.79 -23.54,32.79 c-4.75,0 -9,-2.18 -12.67,-6.07 l0.6700000000000002,9.23 V202.98053588867185 H728.7126832580566 zm35.08,29.64 c0,-10 -2.72,-14.09 -7.92,-14.09 c-2.94,0 -5.21,1.21 -7.7,4.37 v22.35 A10,10 0 0 0 755.4026832580566,166.08053588867188 C759.9426832580566,166.08053588867188 763.7926832580566,162.17053588867188 763.7926832580566,150.52053588867187 z" id="svg_14"/>
		<path class="cls-3" d="M793.8926832580566,158.29053588867188 V120.88053588867189 H813.4026832580566 v34.74 c0,7.77 1.81,9.71 5.66,9.71 c3.62,0 5.66,-1.46 8.15,-5.34 V120.88053588867189 h19.46 v60.73 H830.7826832580566 l-1.36,-8 h-0.45 c-4.53,5.83 -9.73,9.47 -17.43,9.47 C799.1026832580567,183.08053588867188 793.8926832580566,173.35053588867186 793.8926832580566,158.29053588867188 z" id="svg_15"/>
		<path class="cls-3" d="M859.7526832580567,160.23053588867188 V97.08053588867188 h19.46 v63.88 c0,4.13 1.81,5.34 3.17,5.34 a6.63,6.63 0 0 0 2,-0.24000000000000002 l2.26,15.3 a22.63,22.63 0 0 1 -9.5,1.7000000000000002 C864.0526832580566,183.08053588867188 859.7526832580567,173.83053588867188 859.7526832580567,160.23053588867188 z" id="svg_16"/>
		<path class="cls-3" d="M888.9426832580566,174.5605358886719 l8.6,-12.870000000000001 c5.21,4.13 9.85,6.07 13.81,6.07 s5.66,-1.21 5.66,-3.64 c0,-3.16 -5.21,-4.62 -10.870000000000001,-7 c-6.5600000000000005,-2.79 -14.26,-8 -14.26,-18 c0,-11.9 9.06,-19.67 22.41,-19.67 c9.28,0 15.84,4 20.82,8 l-8.6,12.39 c-4.07,-3.16 -8,-5.1 -11.54,-5.1 c-3.2800000000000002,0 -5,1 -5,3.4 c0,3.16 5,4.37 10.64,6.5600000000000005 c6.79,2.67 14.48,7.28 14.48,18.21 c0,11.42 -8.37,20.16 -24.22,20.16 C903.6526832580566,183.08053588867188 894.8326832580566,179.66053588867186 888.9426832580566,174.5605358886719 z" id="svg_17"/>
		<path class="cls-3" d="M941.6726832580566,151.24053588867187 c0,-19.67 13.36,-31.81 27.16,-31.81 c16.75,0 24.67,13.11 24.67,29.39 a46.5,46.5 0 0 1 -0.79,8.74 h-32.25 c1.81,7.29 6.79,9.71 13.13,9.71 c3.84,0 7.46,-1.21 11.54,-3.64 l6.33,12.39 a36.34,36.34 0 0 1 -20.59,7 C954.4026832580566,183.08053588867188 941.6726832580566,171.40053588867187 941.6726832580566,151.24053588867187 zm35.31,-7.28 c0,-4.62 -1.81,-8.75 -7.7,-8.75 c-4.3,0 -7.92,2.68 -9,8.75 z" id="svg_18"/>
	</g></g></svg>