<svg xmlns="http://www.w3.org/2000/svg" xmlns:xlink="http://www.w3.org/1999/xlink" version="1.1" style="enable-background:new 0 0 283.922 283.922;" xml:space="preserve" width="283.922" height="283.922">
	<rect id="backgroundrect" width="100%" height="100%" x="0" y="0" fill="none" stroke="none" />
	<g class="currentLayer" style="">
		<title>
			Layer 1
		</title>
		<g id="svg_1" class="selected" fill="#ffffff" fill-opacity="1">
			<path d="M266.422,0h-97.625c-9.65,0-17.5,7.851-17.5,17.5c0,9.649,7.85,17.5,17.5,17.5h55.377l-92.375,92.374   c-3.307,3.305-5.127,7.699-5.127,12.375c0,4.676,1.819,9.069,5.125,12.371c3.306,3.309,7.699,5.13,12.375,5.13   c4.674,0,9.069-1.82,12.376-5.127l92.374-92.375v55.377c0,9.649,7.851,17.5,17.5,17.5c9.649,0,17.5-7.851,17.5-17.5V17.5   C283.922,7.851,276.071,0,266.422,0z" id="svg_2" fill="#ffffff" fill-opacity="1" />
			<path d="M201.137,253.922H30V82.785h128.711l30-30H15c-8.284,0-15,6.716-15,15v201.137c0,8.284,6.716,15,15,15h201.137   c8.284,0,15-6.716,15-15V95.211l-30,30V253.922z" id="svg_3" fill="#ffffff" fill-opacity="1" />
		</g>
		<g id="svg_4">
		</g>
		<g id="svg_5">
		</g>
		<g id="svg_6">
		</g>
		<g id="svg_7">
		</g>
		<g id="svg_8">
		</g>
		<g id="svg_9">
		</g>
		<g id="svg_10">
		</g>
		<g id="svg_11">
		</g>
		<g id="svg_12">
		</g>
		<g id="svg_13">
		</g>
		<g id="svg_14">
		</g>
		<g id="svg_15">
		</g>
		<g id="svg_16">
		</g>
		<g id="svg_17">
		</g>
		<g id="svg_18">
		</g>
	</g>
</svg>
