<svg xmlns="http://www.w3.org/2000/svg" xmlns:xlink="http://www.w3.org/1999/xlink" version="1.1" style="" xml:space="preserve" width="512" height="512"><rect id="backgroundrect" width="100%" height="100%" x="0" y="0" fill="none" stroke="none"/>

















<g class="currentLayer" style=""><title>Layer 1</title><path style="" d="M384,0H149.333c-41.237,0-74.667,33.429-74.667,74.667v426.667c0.001,4.316,2.603,8.207,6.592,9.856  c1.291,0.538,2.676,0.813,4.075,0.811c2.831,0.005,5.548-1.115,7.552-3.115l120.448-120.619  C260.48,434.795,325.44,499.2,332.416,507.136c3.261,4.906,9.882,6.24,14.788,2.979c1.775-1.18,3.155-2.864,3.964-4.835  c0.687-1.195,0.978-2.576,0.832-3.947v-448c0-17.673,14.327-32,32-32c5.891,0,10.667-4.776,10.667-10.667S389.891,0,384,0z" id="svg_1" class="" fill="#ffffff" fill-opacity="1"/><path style="" d="M394.667,0L394.667,0c23.564,0,42.667,19.103,42.667,42.667v32c0,5.891-4.776,10.667-10.667,10.667  H352l0,0V42.667C352,19.103,371.103,0,394.667,0z" id="svg_2" class="" fill="#ffffff" fill-opacity="1"/><g id="svg_3">
</g><g id="svg_4">
</g><g id="svg_5">
</g><g id="svg_6">
</g><g id="svg_7">
</g><g id="svg_8">
</g><g id="svg_9">
</g><g id="svg_10">
</g><g id="svg_11">
</g><g id="svg_12">
</g><g id="svg_13">
</g><g id="svg_14">
</g><g id="svg_15">
</g><g id="svg_16">
</g><g id="svg_17">
</g></g></svg>