<svg xmlns="http://www.w3.org/2000/svg" xmlns:xlink="http://www.w3.org/1999/xlink" version="1.1" style="enable-background:new 0 0 14.947 13;" xml:space="preserve" width="14.946999549865723" height="13"><rect id="backgroundrect" width="100%" height="100%" x="0" y="0" fill="none" stroke="none"/>



	<metadata>
		<rdf:RDF xmlns:rdf="http://www.w3.org/1999/02/22-rdf-syntax-ns#" xmlns:rdfs="http://www.w3.org/2000/01/rdf-schema#" xmlns:dc="http://purl.org/dc/elements/1.1/">
			<rdf:Description about="https://iconscout.com/legal#licenses" dc:title="recent-time-search-reload-time" dc:description="recent-time-search-reload-time" dc:publisher="Iconscout" dc:date="2017-04-02" dc:format="image/svg+xml" dc:language="en">
				<dc:creator>
					<rdf:Bag>
						<rdf:li>Becris .</rdf:li>
					</rdf:Bag>
				</dc:creator>
			</rdf:Description>
		</rdf:RDF>
    </metadata><g class="currentLayer" style=""><title>Layer 1</title><path d="M8.447,0C5.441,0,2.911,2.055,2.172,4.832L0.895,2.276L0,2.724l2.268,4.536L6.747,3.9l-0.6-0.8L3.055,5.419  C3.559,2.902,5.785,1,8.447,1c3.033,0,5.5,2.467,5.5,5.5S11.48,12,8.447,12v1c3.584,0,6.5-2.916,6.5-6.5S12.031,0,8.447,0z" id="svg_1" class="" fill="#6d6d6d" fill-opacity="1" opacity="0.73"/><polygon points="7.947,3.5 7.947,6.768 11.17,8.916 11.725,8.084 8.947,6.232 8.947,3.5 " id="svg_2" class="" fill="#6d6d6d" fill-opacity="1" opacity="0.73"/></g></svg>