<svg xmlns="http://www.w3.org/2000/svg" viewBox="0 0 259.58 222.84"><defs><style>.cls-1{fill:#383237;}.cls-2{fill:#231f20;}.cls-3{fill:#fff;}.cls-4{fill:#f90;}</style></defs><title>Asset 1</title><g id="Layer_2" data-name="Layer 2"><g id="Study_2" data-name="Study 2"><path class="cls-1" d="M94.29,49.24,91.2,39.58C97,36.38,104.72,28.51,101.89,16,100.36,9.18,97.39,4.49,93.06,2S82.93-.66,76,1.55a19.31,19.31,0,0,0-13,12.55,21.1,21.1,0,0,0,2.64,18.49,2.25,2.25,0,1,0,3.63-2.66,16.75,16.75,0,0,1-2-14.44,14.65,14.65,0,0,1,10-9.65C83.05,4,87.57,4.06,90.82,5.92s5.43,5.53,6.67,11c3.1,13.73-9.37,19.15-9.89,19.37a2.25,2.25,0,0,0-1.29,2.77l3.6,11.24L64.86,69,69,71.56A42.7,42.7,0,0,0,98.72,76c13.49-2.8,21.21-9.87,25.48-15.86a46.89,46.89,0,0,0,2.52-4.07Zm4.23,25.53A41.35,41.35,0,0,1,69.7,70.45l23.35-17.4,30.14,6.37C119.05,65.22,111.58,72.06,98.52,74.77Z"/><path class="cls-2" d="M68.38,215.7c-2.66-11.6-7.8-33.91-12.39-53-8.64-35.87-9.21-36-10.92-36.52a2.26,2.26,0,0,0-2.23.55c-.21.19-1.87,1.42-13.47,7.51a5.89,5.89,0,0,1-7.61-1.89l-21-30.83A3.81,3.81,0,0,1,0,99.35a3.65,3.65,0,0,1,1.65-3L50.49,64.47a7.91,7.91,0,0,1,9,.27,47.56,47.56,0,0,0,37.93,8.15c19.63-4.08,28.29-16.47,31.7-23.49a5.31,5.31,0,0,1,5.76-2.89l55.31,10.57a6.18,6.18,0,0,1,5,7c-.68,4.67-2.52,15.92-3.81,24.52a6.91,6.91,0,0,1-7.69,5.82l-17.18-2.15a3.19,3.19,0,0,0-3.05,4.85h0l6,28.21L69.94,222.1S68.83,217.67,68.38,215.7Z"/><path class="cls-3" d="M152.49,162l-23.82,15.51V110.82c0-1.78,1.83-3.23,4.09-3.23h15.63c2.26,0,4.1,1.45,4.1,3.23Z"/><path class="cls-3" d="M100.39,203.39V135c0-1.78,1.83-3.23,4.09-3.23h15.63c2.26,0,4.09,1.45,4.09,3.23v50.53Z"/><path class="cls-3" d="M71.56,222.29V157.61c0-1.78,1.83-3.23,4.09-3.23H91.28c2.26,0,4.09,1.45,4.09,3.23V207.1Z"/><path class="cls-4" d="M259.58,189.62a2,2,0,0,1-3.3,1.45L234.42,171a2.31,2.31,0,0,0-3.63.67c-.28.57-28.75,57.37-159.93,50.65a7.56,7.56,0,0,1-.92-.19l16-15.9h0l30-30h0l59.42-59.43a3.07,3.07,0,0,0,.07-4.28L156,91.78a2,2,0,0,1,1.44-3.32H255A4.55,4.55,0,0,1,259.58,93Z"/></g></g></svg>